<?xml version="1.0" encoding="UTF-8"?>
<svg id="_レイヤー_2" data-name="レイヤー_2" xmlns="http://www.w3.org/2000/svg" viewBox="0 0 434.76 145.83">
  <defs>
    <style>
      .cls-1 {
        fill: #00b0af;
      }

      .cls-1, .cls-2 {
        stroke: #231815;
        stroke-miterlimit: 10;
      }

      .cls-3 {
        fill: #231815;
      }

      .cls-2 {
        fill: #fff;
      }
    </style>
  </defs>
  <g id="_レイヤー_1-2" data-name="レイヤー_1">
    <g>
      <path class="cls-3" d="M0,61.17c0-8.94,7.37-16.18,16.42-15.94,8.69.36,15.33,7.73,15.33,16.3v47.57c0,3.14,2.66,5.8,5.8,5.8h17.75c2.17,0,3.98-1.81,3.98-3.98v-12.68c0-4.35,3.26-8.09,7.61-8.45,4.71-.24,8.69,3.5,8.69,8.21v12.92c0,11.23-9.06,20.28-20.29,20.28H15.82c-8.69,0-15.82-7.12-15.82-15.94v-54.09ZM51.92,61.65c4.59,0,8.21-3.74,8.21-8.21s-3.62-8.21-8.21-8.21-8.09,3.74-8.09,8.21,3.62,8.21,8.09,8.21ZM70.03,61.65c4.47,0,8.09-3.74,8.09-8.21s-3.62-8.21-8.09-8.21-8.21,3.74-8.21,8.21,3.62,8.21,8.21,8.21Z"/>
      <path class="cls-3" d="M97.44,106.69c0-3.5,2.78-6.16,6.16-6.16h29.1v-27.65c0-3.5,2.78-6.16,6.16-6.16s6.16,2.66,6.16,6.16h5.31c6.52,0,11.95,5.31,11.95,11.95s-5.43,11.95-11.95,11.95h-5.31v3.74h11.11c3.38,0,6.16,2.66,6.16,6.16s-2.78,6.04-6.16,6.04h-11.11v12.32c0,3.38-2.78,6.16-6.16,6.16h-35.26c-3.38,0-6.16-2.78-6.16-6.16v-18.35ZM132.7,118.88v-6.16h-22.94v6.16h22.94Z"/>
      <path class="cls-3" d="M181.61,66.48c0-8.81,7.12-15.94,15.94-15.94s15.94,7.12,15.94,15.94v3.62c0,7.24,0,15.33.72,22.22.6,5.19,1.57,8.09,2.17,9.54l4.47-2.42c3.86-2.17,8.94-.6,11.11,3.38,2.05,3.98.6,8.94-3.38,11.11l-6.16,3.26c-.36,3.02-1.57,5.92-3.62,8.45-3.26,3.62-7.73,5.55-12.19,5.55-3.62,0-7.37-1.21-10.38-3.86-14.85-12.68-14.73-37.43-14.61-57.35v-3.5ZM250.91,60.44c21.01,19.08,17.02,50.47,16.78,51.8-.48,4.1-3.98,7-8.09,7h-1.09c-4.47-.6-7.61-4.83-7-9.3,0-.12,2.9-24.15-11.71-37.31-3.26-3.14-3.5-8.21-.48-11.59,3.02-3.38,8.21-3.62,11.59-.6Z"/>
      <path class="cls-3" d="M324.14,8.63l5.07,14.92c.3.88.41,1.82.32,2.75s-.36,1.83-.78,2.63c-.45.85-1.02,1.57-1.71,2.17-.75.66-1.58,1.11-2.53,1.43-.91.31-1.85.43-2.84.4-.9-.02-1.85-.27-2.68-.68-.83-.41-1.62-.92-2.22-1.61-.69-.83-.68-2.01.09-2.72.78-.71,2.05-.7,2.72.09.27.32.64.56,1.03.75.39.19.83.29,1.28.3.9.02,1.89-.32,2.59-.88.35-.28.63-.66.84-1.02.24-.37.3-.79.36-1.22.04-.38-.03-.81-.17-1.21l-5.04-14.84c-.35-1.02.22-2.11,1.21-2.45,1.02-.35,2.1.18,2.45,1.21ZM321.65,1.31l.16.48c.35,1.02-.18,2.1-1.21,2.45-.99.34-2.1-.18-2.45-1.21l-.16-.48c-.35-1.02.22-2.11,1.21-2.45,1.02-.35,2.1.18,2.45,1.21Z"/>
      <path class="cls-3" d="M336.39,22.4c-.46,0-.97-.19-1.35-.54-3.09-2.98-4.17-7.69-2.66-11.7,1.55-4.09,5.53-6.91,9.89-7.06,4.4-.15,8.54,2.47,10.31,6.49,1.77,3.98.92,8.81-2.09,11.93-.77.81-2.01.81-2.78.08-.77-.73-.81-1.97-.08-2.78,1.97-2.01,2.51-5.1,1.35-7.65-1.12-2.59-3.78-4.25-6.6-4.17-2.78.12-5.33,1.93-6.33,4.56-.97,2.55-.27,5.56,1.74,7.49.77.73.77,1.97.04,2.74-.39.42-.89.62-1.43.62ZM342.84,24.02h-.31c-1.08,0-1.97-.89-1.97-1.97,0-1.08.89-1.93,1.97-1.93h.31c1.08,0,1.97.85,1.97,1.93,0,1.08-.89,1.97-1.97,1.97Z"/>
      <path class="cls-3" d="M357.81,31.17l-.28.18c-.52.38-1.2.45-1.78.24-.36-.14-.65-.37-.9-.67-.61-.89-.41-2.09.45-2.72l.28-.18c.86-.63,2.06-.42,2.68.43.61.89.41,2.09-.45,2.72ZM378.6,14.33l-16.46,13.56c-.54.46-1.28.55-1.89.32-.32-.12-.59-.3-.81-.59-.69-.8-.56-2.03.28-2.7l4.78-3.93c-.04-.1-.09-.2-.08-.32l-1.57-12.35c-.13-1.08.6-2.04,1.69-2.17,1.04-.14,2.01.59,2.13,1.67l1.31,10.32,8.21-6.77c.83-.68,2.03-.56,2.72.24.68.83.54,2.06-.29,2.74Z"/>
      <path class="cls-3" d="M386.79,36.27c-.25-.15-.44-.35-.58-.54-.36-.5-.44-1.21-.15-1.79.46-.81,1.49-1.17,2.33-.72,2.52,1.33,6.1,1.8,8.5.31l5.8-4.17-2.07-2.89c-.56-.78-.39-1.86.37-2.4.78-.56,1.83-.36,2.39.42l2.07,2.88,1.38-.99c.78-.56,1.86-.39,2.4.37.54.75.36,1.83-.42,2.39l-1.38.99,2.68,3.73c.54.75.39,1.81-.39,2.37-.75.54-1.83.36-2.37-.39l-2.68-3.73-4.8,3.45c-3.74,3.26-9.4,2.66-13.09.7ZM397.98,52.71c-.54.77-1.6.96-2.36.41-.87-.61-1.75-1.45-2.52-2.52-.9-1.25-1.61-2.84-1.76-4.44-.19-1.86.36-3.54,1.62-4.83.64-.7,1.72-.71,2.42-.07.67.66.68,1.74.04,2.44-.54.58-.76,1.26-.71,2.12.18,1.77,1.57,3.58,2.86,4.51.77.54.96,1.6.42,2.37ZM400.17,56.08l-.27-.04c-.49-.08-.86-.33-1.11-.68-.27-.38-.39-.81-.34-1.27.18-.94,1.06-1.57,1.98-1.42l.27.04c.92.15,1.55,1.03,1.42,1.98-.15.92-1.03,1.55-1.95,1.4ZM404.28,47.52c-.09-.13-.2-.28-.25-.48-.21-.75.12-1.56.74-1.95l-3.65-5.08c-.54-.75-.39-1.81.39-2.37.75-.54,1.83-.36,2.37.39l4.89,6.8c.19.2.32.44.39.67.1.4.09.79-.08,1.15-.11.31-.31.56-.56.74-.25.18-.52.28-.83.31l-1.52.47c-.73.24-1.46-.04-1.89-.64Z"/>
      <path class="cls-3" d="M415.64,80.73c-2.69.6-5.83.09-8.72-1.39-2.1-1.08-3.59-2.9-4.16-5.05-.51-2.04-.46-4.23,1.08-6.69,2.25-3.5,6.46-5.79,11.07-5.99,2.21-.11,4.05.23,5.4,1.02.51.28,1.06.6,1.57.92l-.73-5.36c-.12-.92.54-1.79,1.46-1.91.92-.12,1.79.54,1.91,1.46l1.19,8.73c.09.65-.22,1.28-.72,1.62-.55.5-1.41.54-2.05.12-1.41-.94-2.86-1.83-4.25-2.62-.8-.48-2.08-.65-3.63-.6-3.45.12-6.72,1.89-8.36,4.45-.81,1.24-1.04,2.68-.71,3.96.36,1.24,1.25,2.29,2.5,2.93,2.14,1.15,4.5,1.53,6.39,1.12.91-.2,1.8.34,2.01,1.29.2.91-.34,1.8-1.25,2ZM420.54,80.69l-.46.02c-.89.08-1.71-.55-1.83-1.43v-.08c-.1-.92.57-1.75,1.49-1.84l.46-.06c.92-.09,1.76.62,1.85,1.54.09.92-.58,1.72-1.5,1.84ZM425.25,83.79c-1.05-.29-1.35-1.34-1.18-2.06l1.89-6.49c.27-.89,1.21-1.41,2.1-1.18.89.27,1.41,1.21,1.14,2.11l-1.88,6.49c-.27.89-1.17,1.41-2.07,1.14ZM431.59,85.43l-.38.05c-.96.13-1.83-.57-1.96-1.49-.13-.96.53-1.86,1.48-1.99l.38-.05c-.1-.18-.17-.37-.2-.6-.12-.92.57-1.83,1.49-1.96l.38-.05c.96-.13,1.83.57,1.96,1.49.13.96-.53,1.86-1.48,2l-.38.05c.1.18.17.37.2.6.13.92-.53,1.83-1.49,1.96Z"/>
      <circle class="cls-1" cx="343.81" cy="90.87" r="54.46"/>
      <path class="cls-2" d="M377.73,106.33c2.14-1.13,3.2-3.03,3.96-5.24,1.67-4.87,2.82-9.79,2.22-15-.25-2.17-1.34-3.24-3.47-3.14-.74.03-1.48.2-2.21.16-1.1-.05-1.84.39-2.42,1.29-1.56,2.42-3.14,4.83-4.73,7.23-.22.33-.78.84-.84.79-.78-.56-1.58-1.14-2.18-1.87-.16-.2.21-.99.5-1.39,2.85-4,5.7-7.99,7.73-12.49.21-.46.46-.92.54-1.41.76-4.49-2.98-9.29-7.51-9.58-2.06-.13-4.12-.25-6.18-.19-.83.02-1.83.31-2.43.84-2.23,1.94-4.4,3.95-6.46,6.07-3.45,3.54-6.79,7.18-10.21,10.75-.28.29-.78.35-1.18.52-.08-.4-.17-.8-.23-1.2-.27-1.99-.49-4-.82-5.98-.2-1.22-1.02-1.87-2.22-2.26-5.63-1.83-11.34-2.27-17.18-1.29-1.26.21-1.46.04-1.16-1.18.49-2,1.02-4,1.68-5.94.17-.49.88-1.03,1.4-1.12,1.8-.29,3.63-.42,5.46-.54,2.06-.14,2.06-.11,2.09,1.91,0,.43.06.85.1,1.28.2,2.14,1.09,3.7,3.42,4.07.38.06.74.24,1.1.38,4.86,1.84,9.62,1.27,14.34-.55,1.04-.4,1.74-1.06,2.22-2.09,1.02-2.19,2.15-4.32,3.21-6.49.34-.7.77-1.09,1.63-.99,3.28.39,6.58.67,9.86,1.11,4.42.58,8.76,1.46,12.55,4.04.6.41,1.32.67,2.01.92.91.33,1.58.03,1.66-1,.09-1.24.11-2.48.11-3.73,0-2.61-1.2-4.63-3.42-5.85-1.68-.93-3.5-1.76-5.37-2.2-4.09-.95-8.24-1.62-12.37-2.41-.62-.12-1.39-.02-1.33-1.05.11-1.85-.62-2.79-2.46-3.12-.92-.16-1.86-.24-2.79-.25-3.31-.03-6.62.02-9.93-.04-1.92-.04-3.39.75-4.61,2.12-.54.61-1.03,1.28-1.43,1.98-.44.76-1.01,1.08-1.89,1.08-1.67,0-3.34.15-5.01.19-1.46.03-2.92,0-4.51,0,.11-.38.22-.77.34-1.16.28-.93.61-1.85.85-2.79.18-.7-.13-1.15-.9-1.14-3.26.04-6.52.06-9.78.16-2.56.08-4.11,1.62-5.17,3.79-.31.63-.69,1.26-.8,1.94-.28,1.69-1.19,2.52-2.82,3.08-2.3.79-4.31,2.29-4.87,4.8-.39,1.75-.25,3.63-.29,5.45-.02.83.49,1.27,1.32,1.32.3.02.6.07.95.11.02.28.06.51.04.73-.51,5.54-1.17,11.07-1.5,16.62-.29,4.89-.23,9.8-.31,14.7-.08,4.98-.17,9.95-.23,14.93-.03,2.59-.08,5.19-.01,7.78.03,1.11.74,1.82,1.76,2.4,2.02,1.15,4.18.97,6.35,1.12,2.48.17,4.91-.53,7.46.13,5.03,1.31,10.21.82,15.34.56,1.96-.1,2.29-.35,2.68-2.26.48-2.4.84-4.83,1.01-7.27.35-5.04.52-10.1.79-15.15.07-1.36.24-2.71.36-4.07.07-.79.48-.84,1.13-.59.95.36.92,1.14.93,1.93.06,6.23.12,12.45.18,18.68.02,2.41.05,4.83.04,7.24,0,1.06.5,1.64,1.53,1.63,4.09-.02,8.17-.08,12.26-.11,1.85-.02,3.08-1.03,3.9-2.55.53-.98.88-2.07,1.31-3.11.12-.3.24-.61.41-1.05,1.78,1.48,3.46,2.8,5.05,4.22,1.09.97,2.3,1.46,3.75,1.68,2.83.43,5.61.25,8.3-.66.99-.33,2.08-.89,2.71-1.67,1.31-1.62,1.03-5.33-.08-7.09-1.95-3.09-3.79-6.25-5.67-9.39-.49-.82-.5-1.57.45-2.07ZM320.57,122.59c-.82.06-1.83.28-2.11-.9-.21-.91-.36-1.84-.42-2.77-.2-3.18-.34-6.37-.57-10.75.36-5.57.79-12.32,1.24-19.07.02-.3.05-.68.23-.88.2-.22.74-.47.85-.37.26.24.52.66.51,1-.07,1.9-.29,3.8-.33,5.71-.16,8.33-.11,16.65.9,24.94.07.58.18,1.15.23,1.73.05.54.41,1.28-.54,1.35Z"/>
    </g>
  </g>
</svg>